# xmcd
#
# Track frame offsets:
#	150
#	23827
#	39900
#	62385
#	85495
#	105110
#	126225
#	147642
#	167785
#	191387
#
# Disc length: 2673 seconds
#
# Revision: 1
# Processed by: cddbd v1.5.1PL2 Copyright (c) Steve Scherf et al.
# Submitted via: audiograbber 1.82.02
#
DISCID=7c0a6f0a
DTITLE=Dangerous Dame - Same Ole Dame
DYEAR=1992
DGENRE=Rap
TTITLE0=Dangerous Dame - Gotta Be The Bomb
TTITLE1=Dangerous Dame - Shenead
TTITLE2=Dangerous Dame - Stay With Me
TTITLE3=Dangerous Dame - Same Ole Dame
TTITLE4=Dangerous Dame - Love My City
TTITLE5=Dangerous Dame - Ridin On The Freeway
TTITLE6=Dangerous Dame - Flatland
TTITLE7=Dangerous Dame - You Know The Rules
TTITLE8=Dangerous Dame, Father Dom, Spice 1, Richie Rich, Ant Banks, MC Ant, Ni
TTITLE8=c Nac - Oaktown Funk
TTITLE9=Dangerous Dame - Special Thanks
EXTD=
EXTT0=
EXTT1=
EXTT2=
EXTT3=
EXTT4=
EXTT5=
EXTT6=
EXTT7=
EXTT8=
EXTT9=
PLAYORDER=
